<svg width="2033" height="288" viewBox="0 0 2033 288" fill="none" xmlns="http://www.w3.org/2000/svg">
<path fill-rule="evenodd" clip-rule="evenodd" d="M731.209 117.642H821.284V247.742H881.334V287.792H731.209V117.642ZM1161.56 287.792H1251.63V187.692H1301.66V147.654H1181.57C1171.58 147.654 1161.56 157.589 1161.56 167.667V287.792ZM1525 147.667H1367C1293.64 147.667 1293.77 287.792 1367 287.792H1541.86V247.742H1401.75V227.73H1524.99C1561.04 227.73 1560.51 147.667 1525 147.667ZM1401.76 187.692H1471.8V207.704H1401.76V187.692ZM928.233 287.792H1086.2C1159.59 287.792 1159.46 147.667 1086.2 147.667H911.347V187.705H1051.47V207.717H928.233C892.151 207.717 892.696 287.792 928.233 287.792ZM1051.47 247.742H981.396V227.743H1051.47V247.742ZM711.184 147.667H534.03C463.708 147.667 463.825 287.792 534.03 287.792H711.184V247.742H596.077C562.888 247.742 562.888 187.692 596.077 187.692H711.184V147.667ZM390.662 117.759L390.792 117.642H461.01V287.792H370.935V207.704L280.873 287.792H191.771V207.704L101.683 287.792H0L211.783 117.642H280.873V207.704L390.662 117.759ZM1722 147.667H1753.23C1782.76 147.667 1801.01 166.408 1802.07 185.772V287.78H1722V217.86C1722 196.952 1701.98 187.679 1661.96 187.679V287.78H1571.88V147.667H1722Z" fill="white"/>
<path fill-rule="evenodd" clip-rule="evenodd" d="M1637.02 105.995C1965.44 -74.9849 2219.39 -13.5731 1850.51 209.494C1931.63 73.882 1828.57 60.5491 1637.02 105.995Z" fill="#CC2A2D"/>
</svg>
