<?xml version="1.0" encoding="UTF-8"?><svg id="Layer_1" xmlns="http://www.w3.org/2000/svg" viewBox="0 0 1190.67 376.44"><defs><style>.cls-1{fill:#fff;stroke-width:0px;}</style></defs><path class="cls-1" d="M574.46,1.05c-73.31,0-176.68,21.92-288.65,62.88C192.4,98.08,99.97,141.6,0,204.69c58.49-23.91,173.88-50.92,269.01-50.92,128.44,0,219.96,49.2,84.86,221.61C752.21,114.55,741.21,1.05,574.46,1.05"/><polygon class="cls-1" points="797.13 0 797.09 .03 797.09 0 797.13 0"/><polygon class="cls-1" points="853.58 0 853.58 .24 853.34 0 853.58 0"/><path class="cls-1" d="M853.58.24l-.24-.24h-56.21l-.03.03-30.66,32.67v84.51h30.69v-44.48h56.21v44.48h30.66V32.71L853.58.24ZM853.34,46.66h-56.21v-16h56.21v16Z"/><polygon class="cls-1" points="961.35 15.69 960.34 15.69 960.86 15.21 961.35 15.69"/><polygon class="cls-1" points="961.35 15.69 960.34 15.69 960.86 15.21 961.35 15.69"/><polygon class="cls-1" points="1023.11 32.71 1023.11 117.21 992.46 117.21 992.46 31.07 976.28 31.07 976.28 117.21 945.62 117.21 945.52 31.07 929.44 31.07 929.44 117.21 898.79 117.21 898.79 32.71 929.44 0 945.52 0 960.86 15.21 960.34 15.69 961.35 15.69 960.86 15.21 976.04 .14 976.17 0 992.46 0 1023.11 32.71"/><polygon class="cls-1" points="976.17 0 976.04 .14 976.04 0 976.17 0"/><polygon class="cls-1" points="973.22 289.54 973.22 302.43 1059.74 302.43 1059.74 333.12 973.22 333.12 973.22 345.75 1059.74 345.75 1059.74 376.44 975.24 376.44 942.57 345.78 942.53 345.75 942.53 289.54 942.78 289.29 975.24 258.88 1059.74 258.88 1059.74 289.54 973.22 289.54"/><polygon class="cls-1" points="1190.67 289.5 1190.67 289.54 1190.63 289.5 1190.67 289.5"/><polygon class="cls-1" points="1190.67 345.75 1190.67 346.03 1190.36 346.03 1190.67 345.75"/><path class="cls-1" d="M1190.63,289.5l-32.64-30.62h-84.54v117.56h84.54l32.36-30.41.31-.28v-56.21l-.03-.03ZM1160.01,345.75h-55.86v-56.21h55.86v56.21Z"/><polygon class="cls-1" points="797.13 289.92 797.13 302.77 882.02 302.77 882.02 333.42 797.13 333.42 797.13 376.44 766.44 376.44 766.44 291.93 797.13 259.23 882.02 259.23 882.02 289.92 797.13 289.92"/><polygon class="cls-1" points="927.98 376.44 897.3 376.44 897.3 291.92 927.98 259.23 927.98 376.44"/><path class="cls-1" d="M882.02,160.26l-29.09-30.62h-86.48v115.61h30.66v-38.3h55.83l29.13-30.66v-16.04h-.03ZM844.14,176.3h-47.04v-16.01h47.04v16.01Z"/><polygon class="cls-1" points="1058.11 245.25 1027.44 245.25 1027.44 160.74 1058.11 128.05 1058.11 245.25"/><polygon class="cls-1" points="926.02 214.68 926.02 126.38 895.36 126.38 895.36 212.63 911.72 230.08 926.02 245.34 1012.66 245.34 1012.66 214.68 926.02 214.68"/></svg>